<svg version="1.1" xmlns="http://www.w3.org/2000/svg" xmlns:xlink="http://www.w3.org/1999/xlink" x="0px" y="0px"
	 viewBox="0 0 100 100" style="enable-background:new 0 0 100 100;" xml:space="preserve">
<g id="Vrstva_48">
	<g>
		<g>
			<g>
				<path d="M76.254,89.233c-0.384,0-0.768-0.146-1.061-0.439L57.515,71.116c-0.586-0.586-0.586-1.535,0-2.121
					c0.586-0.586,1.535-0.586,2.121,0l17.678,17.678c0.586,0.586,0.586,1.535,0,2.121C77.021,89.086,76.637,89.233,76.254,89.233z"
					/>
			</g>
			<g>
				<path d="M86.86,78.626c-0.384,0-0.768-0.146-1.061-0.439L68.122,60.509c-0.586-0.586-0.586-1.535,0-2.121
					c0.586-0.586,1.535-0.586,2.121,0l17.678,17.678c0.586,0.586,0.586,1.535,0,2.121C87.628,78.48,87.244,78.626,86.86,78.626z"/>
			</g>
			<g>
				<path d="M50.091,79.334c-0.384,0-0.768-0.146-1.061-0.439c-0.586-0.586-0.586-1.535,0-2.121l7.778-7.778
					c0.586-0.586,1.535-0.586,2.121,0c0.586,0.586,0.586,1.535,0,2.121l-7.778,7.778C50.858,79.187,50.474,79.334,50.091,79.334z"/>
			</g>
			<g>
				<path d="M69.182,60.242c-0.384,0-0.768-0.146-1.061-0.439c-0.586-0.586-0.586-1.535,0-2.121l7.778-7.778
					c0.586-0.586,1.535-0.586,2.121,0c0.586,0.585,0.586,1.536,0,2.121l-7.778,7.778C69.95,60.095,69.566,60.242,69.182,60.242z"/>
			</g>
			<g>
				<path d="M50.089,79.334c-0.725,0-1.363-0.526-1.479-1.266l-5.187-32.764c-0.129-0.818,0.429-1.586,1.247-1.716
					c0.812-0.135,1.586,0.429,1.716,1.247l5.187,32.764c0.129,0.818-0.429,1.586-1.247,1.716
					C50.246,79.328,50.167,79.334,50.089,79.334z"/>
			</g>
			<g>
				<path d="M76.963,52.463c-0.09,0-0.182-0.008-0.273-0.025l-32.057-5.893c-0.815-0.149-1.354-0.932-1.204-1.746
					c0.149-0.815,0.936-1.357,1.746-1.204l32.057,5.894c0.815,0.149,1.354,0.932,1.204,1.746
					C78.303,51.958,77.672,52.463,76.963,52.463z"/>
			</g>
			<g>
				<path d="M76.961,89.233c-0.384,0-0.768-0.146-1.061-0.439c-0.586-0.586-0.586-1.535,0-2.121l9.899-9.899
					c0.586-0.586,1.535-0.586,2.121,0c0.586,0.586,0.586,1.535,0,2.121l-9.899,9.899C77.728,89.086,77.345,89.233,76.961,89.233z"/>
			</g>
		</g>
		<g>
			<g>
				<path d="M36.909,66.718c-0.381,0-0.762-0.144-1.054-0.433c-4.123-4.074-6.394-9.511-6.394-15.308
					c0-11.866,9.654-21.52,21.52-21.52c5.748,0,11.153,2.238,15.217,6.303c0.586,0.585,0.586,1.536,0,2.121
					c-0.586,0.586-1.535,0.586-2.121,0c-3.498-3.498-8.148-5.424-13.096-5.424c-10.212,0-18.52,8.308-18.52,18.52
					c0,4.989,1.954,9.667,5.502,13.173c0.589,0.583,0.595,1.532,0.013,2.122C37.682,66.57,37.296,66.718,36.909,66.718z"/>
			</g>
			<g>
				<path d="M36.197,80.456c-0.236,0-0.477-0.056-0.7-0.175c-10.889-5.765-17.653-16.993-17.653-29.303
					c0-18.271,14.865-33.137,33.137-33.137c12.378,0.001,23.635,6.819,29.378,17.795c0.384,0.734,0.101,1.64-0.634,2.024
					c-0.735,0.384-1.641,0.1-2.024-0.634c-5.224-9.982-15.462-16.185-26.72-16.186c-16.618,0-30.137,13.519-30.137,30.137
					c0,11.195,6.152,21.408,16.056,26.652c0.732,0.387,1.012,1.295,0.624,2.027C37.255,80.166,36.735,80.456,36.197,80.456z"/>
			</g>
			<g>
				<path d="M38.045,94.022c-0.147,0-0.298-0.021-0.446-0.067C18.687,88.071,5.98,70.799,5.98,50.978c0-24.813,20.187-45,45-45
					c19.816,0,37.085,12.7,42.971,31.603c0.247,0.791-0.195,1.632-0.986,1.878c-0.788,0.249-1.631-0.195-1.878-0.986
					C85.594,20.831,69.475,8.978,50.98,8.978c-23.159,0-42,18.841-42,42c0,18.501,11.859,34.62,29.51,40.111
					c0.791,0.246,1.232,1.087,0.986,1.878C39.277,93.61,38.684,94.022,38.045,94.022z"/>
			</g>
		</g>
	</g>
</g>
<script  type="text/javascript">
    <![CDATA[
         var c=window.location.search.split('color=')[1]; c=parseInt(c,16); if(!isNaN(c)){c=c.toString(16);var p=document.getElementsByTagName('path');for(var i=0,l=p.length;i<l;i++){var s=p[i].style;s.fill='#'+c;} var p2=document.getElementsByTagName('polygon');for(var i=0,l=p2.length;i<l;i++){var s=p2[i].style;s.fill='#'+c;} var p3=document.getElementsByTagName('circle');for(var i=0,l=p3.length;i<l;i++){var s=p3[i].style;s.fill='#'+c;} }
        ]]>
</script>
</svg>
