<svg version="1.1" xmlns="http://www.w3.org/2000/svg" xmlns:xlink="http://www.w3.org/1999/xlink" x="0px" y="0px"
	 viewBox="0 0 100 100" style="enable-background:new 0 0 100 100;" xml:space="preserve">
<g id="Vrstva_11">
	<g>
		<g>
			<path d="M63,85.5H37c-0.829,0-1.5-0.672-1.5-1.5V16c0-0.828,0.671-1.5,1.5-1.5h26c0.829,0,1.5,0.672,1.5,1.5v68
				C64.5,84.828,63.829,85.5,63,85.5z M38.5,82.5h23v-65h-23V82.5z"/>
		</g>
		<g>
			<path d="M50.166,75.25c-3.262,0-5.916-2.654-5.916-5.916c0-3.263,2.654-5.917,5.916-5.917s5.917,2.654,5.917,5.917
				C56.083,72.596,53.429,75.25,50.166,75.25z M50.166,66.417c-1.608,0-2.916,1.309-2.916,2.917c0,1.607,1.308,2.916,2.916,2.916
				s2.917-1.309,2.917-2.916C53.083,67.726,51.775,66.417,50.166,66.417z"/>
		</g>
		<g>
			<path d="M54.5,28.5h-9c-0.829,0-1.5-0.672-1.5-1.5s0.671-1.5,1.5-1.5h9c0.829,0,1.5,0.672,1.5,1.5S55.329,28.5,54.5,28.5z"/>
		</g>
		<g>
			<path d="M54.5,37.5h-9c-0.829,0-1.5-0.672-1.5-1.5s0.671-1.5,1.5-1.5h9c0.829,0,1.5,0.672,1.5,1.5S55.329,37.5,54.5,37.5z"/>
		</g>
		<g>
			<path d="M54.5,46.5h-9c-0.829,0-1.5-0.672-1.5-1.5s0.671-1.5,1.5-1.5h9c0.829,0,1.5,0.672,1.5,1.5S55.329,46.5,54.5,46.5z"/>
		</g>
		<g>
			<path d="M28.5,85.5H11c-0.829,0-1.5-0.672-1.5-1.5V16c0-0.828,0.671-1.5,1.5-1.5h17.5c0.829,0,1.5,0.672,1.5,1.5
				s-0.671,1.5-1.5,1.5h-16v65h16c0.829,0,1.5,0.672,1.5,1.5S29.329,85.5,28.5,85.5z"/>
		</g>
		<g>
			<path d="M24.166,75.25c-3.262,0-5.916-2.654-5.916-5.916c0-3.263,2.654-5.917,5.916-5.917s5.917,2.654,5.917,5.917
				C30.083,72.596,27.429,75.25,24.166,75.25z M24.166,66.417c-1.608,0-2.916,1.309-2.916,2.917c0,1.607,1.308,2.916,2.916,2.916
				s2.917-1.309,2.917-2.916C27.083,67.726,25.775,66.417,24.166,66.417z"/>
		</g>
		<g>
			<path d="M28.5,28.5h-9c-0.829,0-1.5-0.672-1.5-1.5s0.671-1.5,1.5-1.5h9c0.829,0,1.5,0.672,1.5,1.5S29.329,28.5,28.5,28.5z"/>
		</g>
		<g>
			<path d="M28.5,37.5h-9c-0.829,0-1.5-0.672-1.5-1.5s0.671-1.5,1.5-1.5h9c0.829,0,1.5,0.672,1.5,1.5S29.329,37.5,28.5,37.5z"/>
		</g>
		<g>
			<path d="M28.5,46.5h-9c-0.829,0-1.5-0.672-1.5-1.5s0.671-1.5,1.5-1.5h9c0.829,0,1.5,0.672,1.5,1.5S29.329,46.5,28.5,46.5z"/>
		</g>
		<g>
			<path d="M89,85.5H71.5c-0.829,0-1.5-0.672-1.5-1.5s0.671-1.5,1.5-1.5h16v-65h-16c-0.829,0-1.5-0.672-1.5-1.5s0.671-1.5,1.5-1.5
				H89c0.829,0,1.5,0.672,1.5,1.5v68C90.5,84.828,89.829,85.5,89,85.5z"/>
		</g>
		<g>
			<path d="M76.166,75.25c-3.262,0-5.916-2.654-5.916-5.916c0-3.263,2.654-5.917,5.916-5.917c3.263,0,5.917,2.654,5.917,5.917
				C82.083,72.596,79.429,75.25,76.166,75.25z M76.166,66.417c-1.608,0-2.916,1.309-2.916,2.917c0,1.607,1.308,2.916,2.916,2.916
				c1.608,0,2.917-1.309,2.917-2.916C79.083,67.726,77.774,66.417,76.166,66.417z"/>
		</g>
		<g>
			<path d="M80.5,28.5h-9c-0.829,0-1.5-0.672-1.5-1.5s0.671-1.5,1.5-1.5h9c0.829,0,1.5,0.672,1.5,1.5S81.329,28.5,80.5,28.5z"/>
		</g>
		<g>
			<path d="M80.5,37.5h-9c-0.829,0-1.5-0.672-1.5-1.5s0.671-1.5,1.5-1.5h9c0.829,0,1.5,0.672,1.5,1.5S81.329,37.5,80.5,37.5z"/>
		</g>
		<g>
			<path d="M80.5,46.5h-9c-0.829,0-1.5-0.672-1.5-1.5s0.671-1.5,1.5-1.5h9c0.829,0,1.5,0.672,1.5,1.5S81.329,46.5,80.5,46.5z"/>
		</g>
	</g>
</g>
<script  type="text/javascript">
    <![CDATA[
         var c=window.location.search.split('color=')[1]; c=parseInt(c,16); if(!isNaN(c)){c=c.toString(16);var p=document.getElementsByTagName('path');for(var i=0,l=p.length;i<l;i++){var s=p[i].style;s.fill='#'+c;} var p2=document.getElementsByTagName('polygon');for(var i=0,l=p2.length;i<l;i++){var s=p2[i].style;s.fill='#'+c;} var p3=document.getElementsByTagName('circle');for(var i=0,l=p3.length;i<l;i++){var s=p3[i].style;s.fill='#'+c;} }
        ]]>
</script>
</svg>
