<svg version="1.1" xmlns="http://www.w3.org/2000/svg" xmlns:xlink="http://www.w3.org/1999/xlink" x="0px" y="0px"
	 viewBox="0 0 100 100" style="enable-background:new 0 0 100 100;" xml:space="preserve">
<g id="Vrstva_12">
	<g>
		<g>
			<path d="M88,81.5H12c-0.829,0-1.5-0.672-1.5-1.5V20c0-0.828,0.671-1.5,1.5-1.5h57.5c0.829,0,1.5,0.672,1.5,1.5
				s-0.671,1.5-1.5,1.5h-56v57h73v-36c0-0.828,0.671-1.5,1.5-1.5c0.829,0,1.5,0.672,1.5,1.5V80C89.5,80.828,88.829,81.5,88,81.5z"/>
		</g>
		<g>
			<g>
				<path d="M65.795,50.904c-0.387,0-0.771-0.148-1.061-0.439l-4.95-4.949c-0.519-0.518-0.587-1.336-0.16-1.933l7.071-9.899
					c0.481-0.672,1.417-0.829,2.093-0.349c0.674,0.481,0.83,1.419,0.349,2.093l-6.333,8.865l3.153,3.152l8.866-6.332
					c0.674-0.481,1.61-0.326,2.092,0.349c0.481,0.675,0.325,1.611-0.349,2.093l-9.899,7.07
					C66.404,50.812,66.099,50.904,65.795,50.904z"/>
			</g>
			<g>
				<path d="M59.371,52.087c-0.384,0-0.768-0.146-1.061-0.439c-0.586-0.585-0.586-1.535,0-2.121l3.121-3.122
					c0.586-0.586,1.536-0.586,2.121,0c0.586,0.585,0.586,1.535,0,2.121l-3.121,3.122C60.139,51.94,59.754,52.087,59.371,52.087z"/>
			</g>
			<g>
				<path d="M76.402,43.127c-0.398,0-0.779-0.158-1.061-0.439l-7.778-7.778c-0.586-0.586-0.586-1.535,0-2.121l9.971-9.971
					c0.586-0.586,1.535-0.586,2.121,0c0.586,0.586,0.586,1.535,0,2.121l-8.91,8.91l5.657,5.657l7.91-7.91
					c0.586-0.586,1.535-0.586,2.121,0c0.586,0.586,0.586,1.535,0,2.121l-8.97,8.971C77.181,42.969,76.8,43.127,76.402,43.127z"/>
			</g>
		</g>
		<g>
			<path d="M47.5,72.5h-27c-0.829,0-1.5-0.672-1.5-1.5s0.671-1.5,1.5-1.5h27c0.829,0,1.5,0.672,1.5,1.5S48.329,72.5,47.5,72.5z"/>
		</g>
		<g>
			<path d="M47.5,54.5h-27c-0.829,0-1.5-0.672-1.5-1.5s0.671-1.5,1.5-1.5h27c0.829,0,1.5,0.672,1.5,1.5S48.329,54.5,47.5,54.5z"/>
		</g>
		<g>
			<path d="M79.5,63.5h-59c-0.829,0-1.5-0.672-1.5-1.5s0.671-1.5,1.5-1.5h59c0.829,0,1.5,0.672,1.5,1.5S80.329,63.5,79.5,63.5z"/>
		</g>
		<g>
			<path d="M79.5,72.5h-23c-0.829,0-1.5-0.672-1.5-1.5s0.671-1.5,1.5-1.5h23c0.829,0,1.5,0.672,1.5,1.5S80.329,72.5,79.5,72.5z"/>
		</g>
		<g>
			<path d="M47,45.5H21c-0.829,0-1.5-0.672-1.5-1.5V29c0-0.828,0.671-1.5,1.5-1.5h26c0.829,0,1.5,0.672,1.5,1.5v15
				C48.5,44.828,47.829,45.5,47,45.5z M22.5,42.5h23v-12h-23V42.5z"/>
		</g>
	</g>
</g>
<script  type="text/javascript">
    <![CDATA[
         var c=window.location.search.split('color=')[1]; c=parseInt(c,16); if(!isNaN(c)){c=c.toString(16);var p=document.getElementsByTagName('path');for(var i=0,l=p.length;i<l;i++){var s=p[i].style;s.fill='#'+c;} var p2=document.getElementsByTagName('polygon');for(var i=0,l=p2.length;i<l;i++){var s=p2[i].style;s.fill='#'+c;} var p3=document.getElementsByTagName('circle');for(var i=0,l=p3.length;i<l;i++){var s=p3[i].style;s.fill='#'+c;} }
        ]]>
</script>
</svg>
